PathFileType  4	(X/Y/Z) C:\Users\antoi\Documents\MyRepositories\mobilecap\ResultsAnalysis
DataRate	CameraRate	NumFrames	NumMarkers	Units	OrigDataRate	OrigDataStartFrame	OrigNumFrames
100.0	100.0	4	51	mm	100.0	569	1137
Frame#	Time	r_knee			r_shank_antsup			r_ankle			r_calc			r_5meta			r_toe			L_knee			L_shank_antsup			L_ankle			L_calc			L_5meta			L_toe			r_sh2			r_sh3			r_sh4			L_sh2			L_sh3			r_thigh1			r_thigh2			r_thigh3			r_thigh4			r_thigh5			L_thigh1			L_thigh2			L_thigh3			L_thigh4			r.ASIS			r.PSIS			L.ASIS			L.PSIS			C7			R_Shoulder			L_Shoulder			R_Sternum			L_Sternum			R_humerus			R_elbow_med			R_elbow_lat			R_forearm			R_wrist_radius			R_wrist_ulna			L_humerus			L_elbow_med			L_elbow_lat			L_forearm			L_wrist_radius			L_wrist_ulna			R_HJC			L_HJC			R_HJC_reg			L_HJC_reg			
		X1	Y1	Z1	X2	Y2	Z2	X3	Y3	Z3	X4	Y4	Z4	X5	Y5	Z5	X6	Y6	Z6	X7	Y7	Z7	X8	Y8	Z8	X9	Y9	Z9	X10	Y10	Z10	X11	Y11	Z11	X12	Y12	Z12	X13	Y13	Z13	X14	Y14	Z14	X15	Y15	Z15	X16	Y16	Z16	X17	Y17	Z17	X18	Y18	Z18	X19	Y19	Z19	X20	Y20	Z20	X21	Y21	Z21	X22	Y22	Z22	X23	Y23	Z23	X24	Y24	Z24	X25	Y25	Z25	X26	Y26	Z26	X27	Y27	Z27	X28	Y28	Z28	X29	Y29	Z29	X30	Y30	Z30	X31	Y31	Z31	X32	Y32	Z32	X33	Y33	Z33	X34	Y34	Z34	X35	Y35	Z35	X36	Y36	Z36	X37	Y37	Z37	X38	Y38	Z38	X39	Y39	Z39	X40	Y40	Z40	X41	Y41	Z41	X42	Y42	Z42	X43	Y43	Z43	X44	Y44	Z44	X45	Y45	Z45	X46	Y46	Z46	X47	Y47	Z47	X48	Y48	Z48	X49	Y49	Z49	X50	Y50	Z50	X51	Y51	Z51	

569	5.68000000	-206.79563	466.80057	-387.88310	-175.62745	354.72423	-389.67194	-295.96282	94.83165	-388.79338	-341.41994	52.71124	-440.55882	-189.69404	40.65412	-340.66704	-149.07225	57.34365	-380.79638	-194.05306	465.59762	-781.84858	-161.32081	355.16183	-749.84699	-300.04233	93.88003	-795.24031	-348.18648	52.45501	-745.37336	-186.14064	36.30041	-818.59598	-146.13675	55.27839	-766.38204	-203.27449	245.46024	-393.01322	-235.56171	366.08807	-345.03379	-277.00451	262.70224	-359.05424	-208.48335	391.55928	-815.42600	-243.01355	276.66728	-835.13751	-249.45602	773.90136	-417.59859	-201.28126	678.68280	-403.72094	-234.68300	638.54658	-360.99542	-344.83841	729.93204	-379.46204	-289.33658	629.60351	-363.14836	-250.73480	756.47211	-775.34629	-181.46499	641.42024	-780.01895	-350.59857	712.87245	-804.33526	-276.35081	591.35006	-805.02097	-241.43366	868.98951	-469.06755	-395.16657	971.31161	-538.76131	-236.32163	869.08710	-710.48539	-396.94382	971.83341	-654.09952	-179.07530	1367.61176	-582.29057	-123.83882	1336.04648	-438.35059	-110.58014	1338.96278	-724.94858	-73.28336	1279.90943	-559.54675	-71.14025	1278.44621	-602.11107	-136.75480	1229.63940	-355.62597	-277.60335	1059.78241	-338.15481	-223.23763	1079.16928	-277.00069	-115.81929	1071.53777	-337.18529	-43.15563	1081.79773	-406.30487	-31.65084	1048.25267	-393.14639	-119.66168	1214.10796	-818.73885	-231.91348	1042.41324	-829.77483	-200.31577	1062.48934	-900.64129	-101.25552	1055.52522	-858.13335	-8.00223	1057.67785	-772.45795	1.32204	1029.36506	-785.86857	-349.09245	832.34782	-495.30217	-342.35870	827.17154	-684.48988	-329.53373	829.88822	-501.56053	-331.98887	830.60951	-660.91095	
570	5.69000000	-203.63539	465.86198	-387.55584	-172.91262	353.63618	-389.27870	-295.63261	94.95831	-388.85619	-341.29130	52.81251	-440.72675	-189.63565	40.66171	-340.55623	-148.96092	57.20963	-380.88795	-192.13530	464.74304	-783.01263	-158.47256	354.11030	-751.15684	-299.75571	93.82655	-795.04019	-348.02843	52.34400	-745.14257	-186.15753	36.28077	-818.67500	-146.12434	55.18626	-766.46518	-201.52455	244.68242	-392.67454	-232.88852	365.53565	-344.83362	-274.78965	261.99318	-358.86349	-205.93791	390.70686	-815.93380	-241.55452	276.01429	-835.52256	-254.32607	771.63017	-416.98874	-203.65168	677.81184	-403.24727	-235.60044	636.34253	-360.74417	-348.52226	725.16711	-379.08747	-290.20617	626.35490	-362.42853	-255.87284	753.84226	-776.49454	-183.75174	640.72082	-781.72472	-354.88282	707.76480	-804.37152	-277.63212	588.03008	-805.43851	-246.67303	862.62577	-468.92276	-399.23999	966.38924	-538.78599	-241.83893	862.24544	-710.44977	-401.04881	966.84074	-654.01616	-177.02803	1359.02924	-581.48996	-121.01372	1326.32485	-438.61307	-108.22787	1329.78101	-724.16822	-72.00120	1269.60940	-559.66637	-69.63956	1268.41390	-601.88609	-133.21052	1220.34950	-355.62640	-274.25583	1050.86902	-335.75538	-218.95343	1070.43050	-275.37481	-112.25133	1062.72545	-336.68025	-40.41066	1073.20050	-406.62357	-28.63456	1039.70389	-393.33297	-117.11057	1205.69209	-818.62613	-228.67620	1033.84309	-831.31174	-196.57191	1054.30364	-901.82362	-97.84575	1047.48267	-858.77624	-5.28526	1049.38332	-772.08521	4.23434	1021.25363	-785.67923	-354.72190	827.08850	-495.06970	-348.21299	821.52508	-684.25418	-335.26810	824.24231	-501.37550	-337.77008	824.86754	-660.79464	
571	5.70000000	-200.63976	464.91474	-387.20198	-170.27514	352.45790	-388.92522	-295.36559	95.06196	-388.90654	-341.17674	52.82536	-440.83483	-189.59909	40.62289	-340.53738	-148.89561	57.10902	-380.94972	-190.00676	463.77385	-784.07939	-155.77172	352.96429	-752.33968	-299.49486	93.81683	-794.97209	-348.00554	52.52961	-745.25936	-186.16128	36.23249	-818.79984	-146.06591	55.18519	-766.65514	-199.86310	243.81854	-392.41820	-230.34576	364.94305	-344.73748	-272.54308	261.25746	-358.83777	-203.50612	390.00060	-816.72312	-240.49349	275.22389	-835.35971	-259.01673	769.45532	-416.30717	-206.18225	676.80479	-402.62938	-236.74948	634.19278	-360.34596	-352.25856	720.12769	-378.70243	-291.21722	622.99154	-361.87904	-261.04652	750.93845	-777.85902	-186.11681	639.53663	-783.46041	-359.17134	702.05834	-804.11193	-279.01425	584.42801	-805.85413	-251.96813	855.92940	-468.81564	-403.28005	960.92574	-538.67027	-247.31890	855.08875	-710.54428	-405.11542	961.35733	-653.97915	-175.52139	1350.08485	-580.39119	-118.44829	1316.06197	-438.96572	-106.07916	1320.13771	-723.46629	-70.91610	1258.93882	-559.69832	-68.61136	1257.67700	-601.85840	-129.82215	1210.64979	-355.65097	-270.51235	1041.30753	-333.35076	-214.68779	1061.26157	-273.87732	-108.69824	1053.57969	-336.24987	-37.68265	1064.17005	-407.00440	-25.65994	1031.25422	-393.37391	-114.56334	1196.92382	-818.25124	-225.54088	1024.65125	-833.11064	-192.87438	1045.72797	-903.14991	-94.44839	1038.96248	-859.42080	-2.52203	1040.83567	-772.06875	7.17737	1012.68638	-785.52011	-360.26667	821.35891	-494.88758	-353.99097	815.48658	-684.06983	-340.96920	818.12574	-501.26853	-343.50893	818.72282	-660.81895	
572	5.71000000	-197.91177	463.95801	-386.91731	-167.72802	351.21535	-388.58578	-295.19815	95.22479	-388.72211	-341.12152	52.77009	-440.85310	-189.58996	40.56186	-340.53316	-148.89963	57.02416	-380.93506	-187.61930	462.66455	-785.00252	-153.42911	351.50837	-753.10831	-299.26396	93.85633	-795.07312	-348.08067	52.80490	-745.51346	-186.14374	36.13345	-818.88314	-146.00684	55.16626	-766.77616	-198.21020	242.67280	-392.21875	-227.84557	364.31896	-344.62611	-270.78643	261.04165	-358.87094	-201.18733	389.24944	-817.63914	-239.49237	274.40472	-835.29161	-263.89369	767.00370	-415.48344	-208.86786	675.69583	-401.85397	-238.31978	632.12207	-359.78568	-356.06959	714.85567	-378.21757	-292.42561	619.51002	-361.48627	-266.32664	747.56324	-779.16396	-188.54848	638.01518	-785.19631	-363.54012	695.85682	-803.74086	-280.35640	580.50621	-806.29262	-257.07880	848.94599	-468.67107	-407.36057	955.20022	-538.49893	-252.67531	847.67993	-710.66332	-409.24090	955.46838	-653.84463	-173.82692	1340.73395	-579.65423	-115.98752	1305.54887	-439.22350	-104.08933	1310.09311	-722.84485	-69.88333	1247.92890	-559.55757	-67.89048	1246.45638	-602.02734	-126.62187	1200.53167	-355.81831	-266.82414	1031.03518	-331.23478	-210.43995	1051.48529	-272.45287	-105.11821	1044.15658	-335.91715	-34.91424	1054.85936	-407.53090	-22.68787	1022.36277	-393.72934	-111.94866	1187.72485	-817.56852	-222.32370	1014.98166	-834.92162	-189.18517	1036.77733	-904.61640	-91.01600	1030.03204	-860.05984	0.23332	1031.98817	-772.09962	10.15017	1003.82488	-785.52121	-365.64438	815.31026	-494.64683	-359.66319	809.12907	-683.82914	-346.52498	811.84106	-501.07503	-349.12891	812.21220	-660.79665	
